<svg xmlns="http://www.w3.org/2000/svg" width="328" height="64" viewBox="0 0 328 64" role="img" aria-label="Euro Cars">
  <rect width="328" height="64" rx="10" fill="#C8102E"/>
  <g transform="translate(14,8)">
  <g>
    <path d="M137.11,7.25h14.99s0,.39,0,.39l.18,3.1-.38.21-17.07.09c-2.11.01-3.49,1.58-3.38,2.98-.14.35-.25.84.08,1.36l20.05.03v3.28s-20.26,0-20.26,0l.08,1.61c.08,1.54,1.46,2.82,3.71,2.82h16.78c.12.06.38.26.48.39l-.04,3.06v.19s-.37.2-.37.2l-.14.22-13.84-.24-5.97-.18c-.47-.01-1.37-.39-1.83-.56-2.11-.79-3.75-2.4-3.99-4.27l-.21-1.89.02-5.94.45-2.55v-.15s.83-1.39.83-1.39l.63-.8,1.93-1.12h.18c2.2-.84,4.65-.83,7.08-.83Z" fill="#f9f6f5"/>
    <path d="M161.21,11.81l.18,9.97c.01.74,1.5,1.55,2.43,1.55l8.86.04c1.72,0,3-1.15,3-2.45l-.03-9.19,5.22.03.04,9.28c0,1.21-.4,2.53-1.26,3.55-1.21,1.45-3.53,2.3-5.73,2.31l-10.63.03-2.8-.42-.21.03-1.06-.32c-1.36-.82-2.75-1.83-2.99-3.31l-.28-1.72-.05-9.49,5.31.1Z" fill="#f9f5f5"/>
    <path d="M161.52,32.94l-11.2.17c-1.31.01-1.83,1.23-1.93,1.97-.13.94-.12,1.9.02,2.81.12.83.37,1.76,1.59,1.96l1.05.18,10.57-.02-.06,2.45-12.54.06-1.22-.25-1.29-.51c-2.05-2.04-1.9-4.57-1.59-7.21.19-1.67,1.24-3.01,3.25-3.62-.01-.02,0-.02.02-.02l2.09-.21h11.18s.04,2.24.04,2.24Z" fill="#0f0303"/>
    <path d="M211.3,33.25v1.88s-9.75,0-9.75,0c-.51,0-1,.38-1.03.69-.06.52.24,1.08.81,1.08h7.94c.62,0,1.84.46,2.14.85.99,1.27.94,2.89-.27,4.07-.51.5-1.99.67-2.85.67h-9.94s-1.29-.02-1.29-.02l.11-1.81,11.03-.13c.36-.1.68-.76.68-1.04s-.45-.89-.91-.89h-8.55c-.41,0-1.11-.25-1.31-.44l-1.02-1.09v-.79s0-1.55,0-1.55c.85-1.03,2.09-1.56,3.8-1.55l10.41.05Z" fill="#0f0303"/>
    <path d="M194.54,35.33l-6.61.1c-.64.01-.98.75-.98,1.19l-.05,5.86h-3.45s.19-7.37.19-7.37c.64-.97,1.82-1.66,3.29-1.85l7.62-.06v2.13Z" fill="#0f0303"/>
    <path d="M227.11,26.37l-2.05.4-2.59.18-9.08-.02c-3.23.15-6.17-.82-7.64-3.06l-.46-1.56v-5.95s.35-1.65.35-1.65l1.6-1.68c1.35-.65,3.05-1.29,4.85-1.29l12.09.03c3.09,0,5.8,1.51,6.28,3.88.43,2.14.34,4.31.19,6.49-.13,1.86-1.75,3.43-3.53,4.21ZM213.07,23.52h10.05c1.14-.01,2.29-.92,2.3-1.8l.02-4.54c0-1.08-1.25-2.12-2.75-2.13l-9.1-.03c-1.16,0-2.79.54-3.02,1.5-.41,1.69-.36,3.44-.1,5.12.17,1.06,1.36,1.88,2.6,1.88Z" fill="#f9f5f5"/>
    <path d="M202.55,15.34l-10.34-.05c-.67,0-1.56.96-1.92,1.44l.14,10.22h-4.92c-.2,0-.67-.3-.6-.3l-.02-10.69c.85-2.72,3.22-4.22,7.1-4.23l10.63-.02-.06,3.63Z" fill="#f8f1f1"/>
    <path d="M175.24,33.19c.88,0,1.88.21,2.73.39l.35.2c.65.35,1.43,1.16,1.44,1.94l.07,5.97c0,.26-.52.69-.79.79h-11.2c-1.46.07-3.09-.57-3.16-1.79l-.11-1.88c-.05-.82.56-1.42,1.51-1.72l10.38-.05c.11-.42.11-1.11-.14-1.43-.22-.28-1.01-.47-1.56-.51l-9.45.03-.23-.42v-1.46s10.17-.07,10.17-.07ZM176.31,40.74l.32-2.18-8.48.05c-.71.43-.5,2.06.51,2.06l7.65.06Z" fill="#0f0303"/>
  </g>
  <g>
    <path d="M63.57,15.1c-.54.12-1.22.34-1.62.77l-2.36,2.6c.65.22.93.02,1.18-.32-.09.02.09.38.18.38l1.75-.15.05.73-.15.44-3.67.23c-1.52.11-4.5,1.47-4.3,2.72l-.19.31.04,6.36c.09.94.59,1.39,1.44,1.51l3.84.61-.22,1.47-1.55-.07c-.78-.03-1.8-.47-2.59-.18l-2.62.95c-.16.06-.65-.04-.63-.21.02-.15.13-.43.2-.56l.83-1.4c.16-.28.12-.5.12-.78l-.05-3.22c0-.08-.07-.36-.11-.32v-2.51s.13-1.2.13-1.2l.03-1.46.49-.83.88-.81,1.71-.69c.75-.33,1.47-.6,2-1.18l3.14-3.44,1.06-.34,1.12-.35-.12.96Z" fill="#160e0e"/>
    <path d="M57.08,16.4l.76,1.46c-.21.33-.82.4-1.26.36l-3.24-.73.96-1.05,2.78-.03Z" fill="#160e0e"/>
    <path d="M87.15,41.71c.21.16.39.35.56.68-1.56-.24-2.8-.58-4.35-.58h-24.65s.17-.54.17-.54l2.78-12.72,6.59.11-1.37,6.45h15.28c1,2.74,2.75,4.92,4.99,6.61Z" fill="#0e0d0e"/>
    <path d="M65.88,8.86l.48-1.49,25.7-.03,1.17-.04-1.19.55c-2.8,1.3-5.13,3.43-7.05,6.06h-13.52s-1.3,6.05-1.3,6.05c-1.16.03-2.17-.07-3.23.1-1.31.21-2.45.93-3.71,1.37l1.47-6.77.31-1.5.31-1.46.56-2.83Z" fill="#0f0d0e"/>
    <path d="M62.6,19.54l-.56,2.54c-.09.4.19,1.07.54,1.12l2.03-1.08.11-.03.84-.29c1.44-.5,2.92-.52,4.46-.47l1.12-.15h9.48s.28,0,.28,0h.58c-.31,1.66-.88,3.28-2.03,4.54-.83.91-1.9,1.68-3.1,1.76-2.16.15-4.36.06-6.55.06l-.47-.12-6.96-.04-5.72-1.21-.66-.15.49-1.27,4.34.69c.37.06.76-.73.8-1.2-2.13-.67-4.23-1.21-6.37-1.65l-.62-.09c-.2-1.25,2.79-2.62,4.3-2.72l3.67-.23Z" fill="#f8f6f5"/>
    <path d="M55.24,22.59l.55,1.54c.11.27.42.58.67.62l-.49,1.27.66.15-.76.14-.23.2c1.29,1.59,2.86,2.76,4.55,3.55-.04.39-.27.94-.45,1.23l-3.84-.61c-.84-.12-1.35-.57-1.44-1.51l-.04-6.36.19-.31.62.09Z" fill="#ecebe8"/>
    <path d="M60.2,30.06c-1.7-.79-3.26-1.97-4.55-3.55l.23-.2c.19.34.6.69.96.84,1.25.53,2.36,1.14,3.47,1.95l-.11.96Z" fill="#160e0e"/>
    <path d="M63.57,15.1c-.07.54-.29.55-.71.88-.78.61-1.51,1.42-2.09,2.18-.26.33-.53.53-1.18.32l2.36-2.6c.4-.44,1.08-.65,1.62-.77Z" fill="#ecebe8"/>
    <path d="M56.46,24.75c-.25-.04-.56-.36-.67-.62l-.55-1.54c2.13.44,4.24.98,6.37,1.65-.04.47-.43,1.26-.8,1.2l-4.34-.69Z" fill="#0e1011"/>
    <path d="M99.02,7.09l.6.04c-3.43,1.33-6.24,3.92-8.21,7.18-1.21,2-2.23,4.16-2.89,6.53-1.42,5.06-1.42,11.01,1.98,15.02,2.28,2.7,5.52,3.99,8.94,3.84,2.61-.09,4.77-1.22,7.1-2.76-1.22,2.14-3.22,3.32-5.1,4.54s-6.16,1.47-8.62.93c-5.37-1.19-9.38-5.69-10.44-11.4l-.33-2.44v-2.77s.3-2.2.3-2.2c1.31-7.05,5.88-12.79,12.15-15.43l.89-.3,3.39-.76.24-.02Z" fill="#0e0e0e"/>
    <path d="M112.43,8.99c1.27,3.62,1.75,7.34,1.69,11.3-.1,7.07-2.35,14.31-7.71,18.68-1.44,1.18-3.3,2.27-4.97,2.51,1.88-1.22,3.88-2.4,5.1-4.54-2.34,1.54-4.5,2.67-7.1,2.76-3.42.14-6.65-1.15-8.94-3.84-3.4-4.01-3.4-9.96-1.98-15.02.67-2.38,1.68-4.53,2.89-6.53l1.08.23c-.84,1.21-1.59,2.57-1.93,4.1,1.41-1.72,2.67-3.14,4.44-4.1,2.5-1.36,5.74-1.94,7.61.28,2.48,2.95,7.26,2.75,9.44-.68l-4.65-.24c-.41-.02-.88-.4-1.17-.68-.74-1.26-.75-2.84.07-4.01.54-.77,1.3-1.04,2.16-.89l3.98.67ZM106.79,34.73c.54-.62,1.04-.88,1.85-.65l1.45-2.11-7.16.02c-1.28,2.76-3.7,4.37-6.57,4.34-1.72.13-3.13-.63-4.9-1.29,1.19,1.59,2.9,2.49,4.69,2.99,3.9,1.11,7.89-.12,10.65-3.29ZM106.61,36.76v.1s0,.1,0,.1v.1s0-.1,0-.1v-.2Z" fill="#f9f9f8"/>
    <path d="M112.43,8.99l-3.98-.67c-.86-.15-1.62.11-2.16.89-.82,1.17-.81,2.75-.07,4.01.29.29.77.66,1.17.68l4.65.24c-2.18,3.43-6.96,3.63-9.44.68-1.87-2.23-5.1-1.64-7.61-.28-1.77.96-3.04,2.39-4.44,4.1.34-1.53,1.09-2.89,1.93-4.1,1.71-2.46,4.31-5.12,7.11-6.08l2.47-.98c.47-.03.9-.48,1.14-.87,2.67-2.03,6.46-1.67,8.65,1.04.35.43.42.93.56,1.35Z" fill="#0e0f0f"/>
    <path d="M106.79,34.73c-2.77,3.17-6.76,4.4-10.65,3.29-1.78-.51-3.5-1.4-4.69-2.99,1.77.66,3.18,1.42,4.9,1.29,2.87.04,5.29-1.58,6.57-4.34l7.16-.02-1.45,2.11c-.81-.23-1.31.03-1.85.65Z" fill="#0e1011"/>
  </g>
</g>
</svg>
