<svg xmlns="http://www.w3.org/2000/svg" width="512" height="512" viewBox="0 0 512 512" role="img" aria-label="Euro Cars">
  <rect width="512" height="512" rx="112" fill="#C8102E"/>
  <g transform="translate(56,56) scale(0.7812)">
  <path d="M115.08,190.5c-10.1.07-22.32,18.5-28.69,24.78,4.68,1.58,6.68.12,8.52-2.32-1.86,5.16,12.17,1.09,13.9,1.63.29,2.16.44,6.65-.74,8.58-16.03.42-55.33,2.17-57.41,21.71l-1.34,2.31.26,46.7c-.23,15.86,28.73,12.05,37.99,15.56l-1.58,10.79c-9.48.86-20.59-3.82-29.86-1.85-3.22.17-29.31,14.53-21.94,1.29,1.83-3.67,8.14-11.66,6.84-16.04-.36-1.38.44-25.75-1.16-25.98-.41-10.96.97-27.19,1.14-38.01,3.16-8.81,13.92-14.61,22.15-17.16,12.48-2.72,28.64-25.35,37.04-33.9,3.89-1.3,11.81-3.89,15.73-5.12l-.86,7.04Z" fill="#160e0e"/>
  <path d="M68.32,200.11l5.44,10.72c-4.71,6.96-26.17-2.38-32.38-2.75l6.93-7.74,20.01-.24Z" fill="#160e0e"/>
  <path d="M284.85,385.89c1.55,1.19,2.78,2.6,4.01,5-17.68-7.61-186.49-3.17-208.74-4.24l1.22-4,19.99-93.38,47.46.79-9.87,47.33,109.98-.06c7.18,20.21,19.83,36.15,35.93,48.57Z" fill="#0e0d0e"/>
  <path d="M131.72,144.74l3.46-10.9,185.05-.23,8.44-.29c-23.86,9.9-43.69,26.22-59.32,48.5l-97.33.03-9.38,44.37c-18.46-1.73-33.62,2.79-49.96,10.77,5.5-25.69,14.27-66.84,19.04-92.25Z" fill="#0f0d0e"/>
  <path d="M108.08,223.17c-.28,5.62-8.6,24.13-.19,26.89,34.95-23.55,96.16-12.32,135.97-14.88-3.94,47.68-50.25,51.72-87.46,45.79,0,0-50.08-.27-50.08-.27-2.42-.55-44.67-9.62-45.91-9.97l3.51-9.33,31.27,5.1c2.65.43,5.5-5.36,5.76-8.8-16.82-5.22-33.26-9.99-50.29-12.81,2.1-19.55,41.37-21.29,57.41-21.71Z" fill="#f8f6f5"/>
  <path d="M55.12,245.56c1.78,3.88,3.61,15.06,8.8,15.84l-3.51,9.33,4.75,1.07-5.51,1.06-1.65,1.45c9.31,11.65,20.57,20.27,32.79,26.08-.32,2.83-1.92,6.88-3.22,9.06-9.35-3.56-38.15.33-37.99-15.56,0,0-.26-46.7-.26-46.7l1.34-2.31,4.46.68Z" fill="#ecebe8"/>
  <path d="M90.8,300.38c-12.22-5.81-23.48-14.43-32.79-26.08l1.65-1.45c8.14,9.93,22.43,11.51,31.94,20.46l-.8,7.07Z" fill="#160e0e"/>
  <path d="M115.08,190.5c-.48,3.96-2.07,4.03-5.1,6.44-9.46,4.65-12,20.75-23.59,18.34,6.44-6.35,18.52-24.65,28.69-24.78Z" fill="#ecebe8"/>
  <path d="M63.92,261.39c-5.18-.75-7.03-11.99-8.8-15.84,15.37,3.23,30.5,7.22,45.83,12.13-.27,3.44-3.11,9.24-5.76,8.8l-31.27-5.1Z" fill="#0e1011"/>
  <path d="M370.31,131.73l4.33.3c-126.76,46.34-110.73,314.25,49.81,218.94-45.53,74.44-162.82,43.5-173.89-43.59-15.66-79.85,40.26-167.2,119.75-175.65Z" fill="#0e0e0e"/>
  <path d="M466.85,145.68c27.3,81.28,12.42,210.63-79.08,238.63,13.54-8.97,27.91-17.62,36.69-33.34-115.89,77.42-173.03-78.42-108.92-166.22l7.76,1.67c-6.06,8.9-11.45,18.89-13.92,30.1,76.78-100.52,97.72,35.77,154.69-33.05-7.25-1.55-37.47,1.5-41.89-6.77-15.25-41.15,17.03-38.2,44.68-31.02ZM426.25,334.67c3.88-4.54,7.5-6.46,13.32-4.76l10.45-15.52-51.57.14c-15.16,34.86-52.39,38.63-82.62,22.34,27.9,34.81,82.4,32.15,110.43-2.2ZM424.98,349.55c-.02.64-.02,1.52,0,2.16.02-.64.02-1.52,0-2.16Z" fill="#f9f9f8"/>
  <path d="M466.85,145.68c-27.71-7.2-59.92-10.09-44.68,31.02,4.29,8.23,34.8,5.3,41.89,6.77-56.75,68.76-78.14-67.39-154.69,33.05,10.84-39.8,45.33-70.57,82.93-81.99,20.95-21.38,64.06-23.06,74.55,11.15Z" fill="#0e0f0f"/>
  <path d="M426.25,334.67c-28.02,34.36-82.53,37.01-110.43,2.2,30.23,16.29,67.47,12.51,82.62-22.34l51.57-.14-10.45,15.52c-5.81-1.7-9.43.23-13.32,4.76Z" fill="#0e1011"/>
</g>
</svg>
